<svg width="20" height="20" viewBox="0 0 20 20" fill="none" xmlns="http://www.w3.org/2000/svg">
<path fill-rule="evenodd" clip-rule="evenodd" d="M5.91568 4.99837H3.66703C2.1013 4.99837 0.832031 6.26765 0.832031 7.83337V10V15.5C0.832031 17.0658 2.1013 18.335 3.66703 18.335H16.3337C17.8994 18.335 19.1687 17.0658 19.1687 15.5V10V7.83337C19.1687 6.26764 17.8994 4.99837 16.3337 4.99837H14.085C13.6983 3.09641 12.0165 1.66504 10.0004 1.66504C7.98423 1.66504 6.30241 3.09641 5.91568 4.99837ZM7.64498 4.99837H12.3558C12.0122 4.02919 11.0873 3.33504 10.0004 3.33504C8.9134 3.33504 7.98857 4.02919 7.64498 4.99837ZM13.3337 6.66837H16.3337C16.9771 6.66837 17.4987 7.18996 17.4987 7.83337V9.16504H10.8354C10.8345 8.70465 10.461 8.33171 10.0004 8.33171C9.53976 8.33171 9.16627 8.70465 9.16537 9.16504H2.50203V7.83337C2.50203 7.18996 3.02362 6.66837 3.66703 6.66837H6.66703H13.3337ZM2.50203 10.835V15.5C2.50203 16.1435 3.02362 16.665 3.66703 16.665H16.3337C16.9771 16.665 17.4987 16.1434 17.4987 15.5V10.835H10.8354C10.8345 11.2954 10.461 11.6684 10.0004 11.6684C9.53976 11.6684 9.16627 11.2954 9.16537 10.835H2.50203Z" fill="#384B00"/>
</svg>
