<svg width="107" height="93" viewBox="0 0 107 93" fill="none" xmlns="http://www.w3.org/2000/svg">
<path fill-rule="evenodd" clip-rule="evenodd" d="M50.5211 80.8236C50.5211 80.8236 32.5914 42.7058 30.1972 38.2635C27.803 33.8213 22.2166 31.9061 18.08 36.1089C13.9434 40.3117 6.0293 48.0391 6.0293 48.0391C6.0293 48.0391 9.85998 45.7648 16.2179 51.2178C22.5757 56.6708 50.5078 80.8236 50.5078 80.8236H50.5211Z" fill="#579542"/>
<path fill-rule="evenodd" clip-rule="evenodd" d="M51.3573 70.5689L53.2194 20.8135H33.4409L21.4434 32.8634C21.4434 32.8634 25.1011 31.4802 28.0407 33.1693C30.9802 34.8451 31.8846 36.2815 33.4409 39.1011C34.9971 41.9207 51.3706 70.5689 51.3706 70.5689H51.3573Z" fill="#ABBC3A"/>
<path fill-rule="evenodd" clip-rule="evenodd" d="M56.6917 70.5689L54.1113 0.730469L86.6057 32.6239C86.6057 32.6239 82.1099 30.8816 78.6916 33.7012C75.5658 36.2814 73.5308 41.136 71.2563 45.0329C68.9818 48.9298 56.6784 70.5689 56.6784 70.5689H56.6917Z" fill="#ABBC3A"/>
<path fill-rule="evenodd" clip-rule="evenodd" d="M57.4766 80.8231C57.4766 80.8231 75.1004 43.8357 77.8005 38.3295C80.5006 32.81 86.1402 32.2115 90.33 36.2946C94.5331 40.3644 101.968 47.7991 101.968 47.7991C101.968 47.7991 99.4545 46.6021 96.515 47.9188C93.5755 49.2355 90.5162 51.869 86.6856 55.3536C82.8549 58.8249 57.4899 80.8231 57.4899 80.8231H57.4766Z" fill="#579542"/>
<path fill-rule="evenodd" clip-rule="evenodd" d="M33.4551 92.0354H53.2337C53.2337 92.0354 16.8954 56.019 12.945 52.1752C8.99461 48.3448 4.72499 48.8768 1.97168 51.5767C-0.781624 54.2766 -0.661915 58.5327 2.39731 61.6449C5.45654 64.7571 33.4551 92.0354 33.4551 92.0354Z" fill="#3D4C22"/>
<path fill-rule="evenodd" clip-rule="evenodd" d="M53.7266 91.9152H73.6382C73.6382 91.9152 101.823 64.2778 104.576 61.3518C107.33 58.4125 108.114 54.2761 104.935 51.2836C101.756 48.2911 97.3139 48.7699 94.9863 51.0974C92.6453 53.4382 53.7399 91.9152 53.7399 91.9152H53.7266Z" fill="#3D4C22"/>
</svg>
