<svg width="513" height="587" viewBox="0 0 513 587" fill="none" xmlns="http://www.w3.org/2000/svg">
<g opacity="0.1">
<path fill-rule="evenodd" clip-rule="evenodd" d="M208.123 586.684C208.123 586.684 230.825 213.64 231.045 168.902C231.255 124.165 196.024 85.4963 145.966 100.545C95.9242 115.591 1.42653 142.072 1.42653 142.072C1.42653 142.072 40.9817 140.682 67.2265 210.201C93.4712 279.72 208.123 586.684 208.123 586.684Z" fill="#ABBD26"/>
<path fill-rule="evenodd" clip-rule="evenodd" d="M216.35 528.915C216.35 528.915 258.217 271.565 264.933 241.083C271.667 210.614 301.54 189.782 333.246 207.809C364.943 225.841 425.091 258.558 425.091 258.558C425.091 258.558 398.424 251.457 369.909 294.671C341.393 337.885 216.345 528.906 216.345 528.906L216.35 528.915Z" fill="#5E9732"/>
<path fill-rule="evenodd" clip-rule="evenodd" d="M236.132 507.868C236.132 507.868 374.295 349.978 391.866 332.02C409.437 314.062 438.758 312.304 452.799 337.762C466.831 363.225 494.092 410.518 494.092 410.518C494.092 410.518 478.85 394.592 440.942 412.179C403.033 429.765 236.132 507.868 236.132 507.868Z" fill="#ABBD38"/>
</g>
</svg>
