<svg width="293" height="67" viewBox="0 0 293 67" fill="none" xmlns="http://www.w3.org/2000/svg">
<path fill-rule="evenodd" clip-rule="evenodd" d="M33.4518 53.0328C33.4518 53.0328 21.5797 27.7933 19.9944 24.8519C18.4091 21.9106 14.7101 20.6424 11.9711 23.4253C9.23208 26.2081 3.99182 31.3247 3.99182 31.3247C3.99182 31.3247 6.52828 29.8188 10.7381 33.4295C14.9479 37.0402 33.443 53.0328 33.443 53.0328H33.4518Z" fill="#579542"/>
<path fill-rule="evenodd" clip-rule="evenodd" d="M34.0068 46.243L35.2398 13.2979H22.1435L14.1995 21.2766C14.1995 21.2766 16.6214 20.3607 18.5678 21.4791C20.5142 22.5887 21.1131 23.5398 22.1435 25.4068C23.174 27.2738 34.0156 46.243 34.0156 46.243H34.0068Z" fill="#ABBC3A"/>
<path fill-rule="evenodd" clip-rule="evenodd" d="M37.5384 46.243L35.8298 0L57.3457 21.118C57.3457 21.118 54.3689 19.9644 52.1055 21.8314C50.0358 23.5398 48.6883 26.7542 47.1823 29.3345C45.6762 31.9148 37.5296 46.243 37.5296 46.243H37.5384Z" fill="#ABBC3A"/>
<path fill-rule="evenodd" clip-rule="evenodd" d="M38.0576 53.0327C38.0576 53.0327 49.7271 28.5418 51.515 24.8959C53.3028 21.2412 57.0371 20.8449 59.8113 23.5485C62.5944 26.2433 67.5176 31.1662 67.5176 31.1662C67.5176 31.1662 65.853 30.3736 63.9066 31.2454C61.9603 32.1173 59.9346 33.861 57.3981 36.1683C54.8617 38.4668 38.0664 53.0327 38.0664 53.0327H38.0576Z" fill="#579542"/>
<path d="M98.7303 31.5097H98.29C97.5766 30.0831 96.2643 27.3971 91.0857 27.3971C85.5196 27.3971 83.7405 32.5225 83.7405 36.547C83.7405 43.0639 88.3731 45.3095 91.2178 45.3095C95.5157 45.3095 97.4885 42.8701 98.7832 41.2585H98.9769V43.3369C98.0169 44.2439 95.6919 46.4632 91.4468 46.4632C85.2289 46.4632 81.0103 42.5443 81.0103 37.0402C81.0103 31.5361 84.7093 26.2434 91.2002 26.2434C93.9128 26.2434 96.5109 27.0888 97.4709 27.3971C97.9905 27.5644 98.5101 27.7493 98.8448 27.7845L98.7391 31.5097H98.7303Z" fill="white"/>
<path d="M108.568 29.5635L106.023 37.0667H111.642L108.577 29.5635H108.568ZM99.3912 45.292H99.7171C101.223 45.292 101.822 44.6051 102.676 42.333L108.947 25.8384H109.467L116.504 42.6324C117.164 44.2176 118.01 45.292 119.269 45.292H119.841V46.111C118.802 46.0581 117.543 46.0317 116.116 46.0317C114.689 46.0317 113.351 46.0581 112.338 46.111V45.292H113.025C113.905 45.292 114.425 44.9926 114.425 44.4113C114.425 44.0238 114.152 43.2841 114.038 43.0375L112.038 38.1059H105.653L104.2 42.4387C104.006 42.9847 103.733 43.8125 103.733 44.4113C103.733 44.9045 104.006 45.292 104.86 45.292H105.459V46.111C104.499 46.0581 103.381 46.0317 102.086 46.0317C101.047 46.0317 100.034 46.0581 99.3736 46.111V45.292H99.3912Z" fill="white"/>
<path d="M120.625 45.2919H121.065C122.518 45.2919 122.765 44.6931 122.844 41.8133C122.95 38.1939 123.012 32.9892 123.012 29.8101C123.012 27.8374 122.413 27.4235 121.039 27.4235H120.273V26.6045C121.012 26.6309 121.831 26.6838 122.686 26.6838C123.452 26.6838 124.165 26.6309 124.852 26.6045L137.755 42.465H137.808L137.64 31.2367C137.587 28.084 137.174 27.4323 135.694 27.4323H135.368V26.6133C136.214 26.6397 137.314 26.6926 138.327 26.6926C139.34 26.6926 140.3 26.6397 141.286 26.6133V27.4323H140.846C140.001 27.4323 139.199 27.7317 139.12 30.3913L138.627 46.3663H137.808L124.218 29.7132H124.165C124.165 33.9579 124.218 38.1763 124.333 42.421C124.386 44.6667 124.826 45.3007 126.112 45.3007H126.658V46.1197C125.751 46.0933 124.659 46.0405 123.646 46.0405C122.633 46.0405 121.479 46.0933 120.634 46.1197V45.3007L120.625 45.2919Z" fill="white"/>
<path d="M142.572 45.2919H143.065C144.325 45.2919 144.871 44.8252 144.871 43.0462V29.678C144.871 27.899 144.325 27.4323 143.065 27.4323H142.572V26.6133C143.453 26.6397 146.571 26.6925 149.31 26.6925C152.542 26.6925 153.828 26.6397 155.748 26.6133C155.801 28.3129 155.853 29.7924 155.994 31.2719H155.228C154.955 29.3521 154.761 27.6525 149.909 27.6525H147.275V35.4022H149.662C153.009 35.4022 153.114 34.8298 153.167 33.2094H153.933C153.907 33.8434 153.881 34.6889 153.881 35.8954C153.881 36.9609 153.907 37.8416 153.933 38.3876H153.167C153.026 37.0138 153 36.4414 149.909 36.4414H147.275V43.0198C147.275 44.6666 147.874 45.0717 149.627 45.0717H150.367C154.973 45.0717 156.179 44.1911 156.611 41.1528H157.377C157.183 42.8525 157.025 44.4377 156.831 46.1109C155.184 46.0845 152.26 46.0317 149.292 46.0317C145.893 46.0317 143.427 46.0845 142.555 46.1109V45.2919H142.572Z" fill="white"/>
<path d="M177.581 31.4304H176.815C176.375 28.4979 172.975 27.4059 170.051 27.4059C165.419 27.4059 161.834 30.4705 161.834 35.957C161.834 40.8358 165.48 45.4328 170.544 45.4328C172.623 45.4328 173.451 45.107 175.23 44.3056V39.7262C175.23 38.9072 175.036 38.2731 173.644 38.2731H173.257V37.4541C174.164 37.4805 175.309 37.5334 176.41 37.5334C177.511 37.5334 178.524 37.4805 179.563 37.4541V38.2731H178.964C178.303 38.2731 177.652 38.5197 177.652 39.6469V45.1246C175.485 45.7851 172.94 46.4632 170.06 46.4632C161.816 46.4632 159.104 40.5716 159.104 36.5735C159.104 30.6819 163.49 26.2434 170.333 26.2434C173.046 26.2434 175.785 27.0888 177.59 27.6965V31.4216L177.581 31.4304Z" fill="white"/>
<path d="M185.586 35.9746C186.053 36.1419 186.74 36.1684 187.454 36.1684C189.92 36.1684 191.945 35.0411 191.945 32.1966C191.945 30.9901 191.126 27.6525 187.313 27.6525C186.652 27.6525 186.133 27.7053 185.586 27.7581V35.9746ZM180.875 45.2919H181.368C182.627 45.2919 183.173 44.8252 183.173 43.0462V29.678C183.173 27.899 182.627 27.4323 181.368 27.4323H180.875V26.6133C181.835 26.6397 183.147 26.6925 184.38 26.6925C186.212 26.6925 187.533 26.6133 188.739 26.6133C193.592 26.6133 194.464 30.4177 194.464 31.677C194.464 35.2701 191.945 36.3621 190.571 36.8024L194.244 42.8877C195.75 45.3536 196.19 45.5209 198.41 45.653V46.2254C197.89 46.2254 197.397 46.2518 196.877 46.2518C194.464 46.2518 193.346 45.9524 191.892 43.5658L188.687 38.3348C188.052 37.322 187.7 37.2692 185.595 37.2075V42.3858C185.595 44.9925 186.062 45.2919 187.154 45.2919H187.947V46.1109C186.74 46.0845 185.586 46.0317 184.389 46.0317C183.191 46.0317 181.843 46.0845 180.883 46.1109V45.2919H180.875Z" fill="white"/>
<path d="M206.768 27.4059C202.928 27.4059 199.317 29.766 199.317 36.1155C199.317 40.554 202.224 45.4328 206.935 45.4328C212.008 45.4328 214.333 41.7076 214.333 36.6703C214.333 32.2582 211.568 27.4059 206.768 27.4059ZM206.847 26.2522C212.299 26.2522 217.064 30.6643 217.064 36.3621C217.064 41.1792 213.338 46.472 206.759 46.472C200.841 46.472 196.569 42.0071 196.569 36.5822C196.569 30.4705 201.449 26.2522 206.847 26.2522Z" fill="white"/>
<path d="M216.491 26.6133C217.53 26.6397 218.816 26.6925 220.049 26.6925C221.282 26.6925 222.436 26.6397 223.607 26.6133V27.4323H223.114C222.454 27.4323 221.828 27.6524 221.828 28.4714C221.828 28.7709 221.996 29.2376 222.181 29.8717L226.267 42.2272H226.32L230.953 26.2522H231.886L236.871 42.0863H236.924L240.403 30.9637C240.596 30.3913 240.949 29.2112 240.949 28.5507C240.949 27.67 240.508 27.4235 239.689 27.4235H239.055V26.6045C239.874 26.6309 241.028 26.6837 242.041 26.6837C243.054 26.6837 244.04 26.6309 245 26.6045V27.4235H244.507C243.441 27.4235 242.781 27.7757 242.314 29.2904L236.836 46.472H235.902L230.917 30.585H230.864L226.179 46.472H225.245L219.38 29.3785C218.834 27.7933 218.006 27.4323 217.02 27.4323H216.474V26.6133H216.491Z" fill="white"/>
<path d="M245.317 45.2919H245.81C247.069 45.2919 247.615 44.8252 247.615 43.0462V29.678C247.615 27.899 247.069 27.4323 245.81 27.4323H245.317V26.6133C246.197 26.6397 249.315 26.6925 252.054 26.6925C255.286 26.6925 256.572 26.6397 258.492 26.6133C258.545 28.3129 258.598 29.7924 258.739 31.2719H257.973C257.7 29.3521 257.506 27.6525 252.653 27.6525H250.02V35.4022H252.406C255.753 35.4022 255.859 34.8298 255.912 33.2094H256.678C256.652 33.8434 256.625 34.6889 256.625 35.8954C256.625 36.9609 256.652 37.8416 256.678 38.3876H255.912C255.771 37.0138 255.744 36.4414 252.653 36.4414H250.02V43.0198C250.02 44.6666 250.619 45.0717 252.371 45.0717H253.111C257.717 45.0717 258.915 44.1911 259.355 41.1528H260.122C259.928 42.8525 259.769 44.4377 259.576 46.1109C257.929 46.0845 255.005 46.0317 252.037 46.0317C248.637 46.0317 246.171 46.0845 245.299 46.1109V45.2919H245.317Z" fill="white"/>
<path d="M266.604 35.9746C267.071 36.1419 267.758 36.1684 268.471 36.1684C270.937 36.1684 272.963 35.0411 272.963 32.1966C272.963 30.9901 272.144 27.6525 268.33 27.6525C267.669 27.6525 267.15 27.7053 266.604 27.7581V35.9746ZM261.892 45.2919H262.385C263.645 45.2919 264.191 44.8252 264.191 43.0462V29.678C264.191 27.899 263.645 27.4323 262.385 27.4323H261.892V26.6133C262.852 26.6397 264.164 26.6925 265.397 26.6925C267.229 26.6925 268.55 26.6133 269.757 26.6133C274.61 26.6133 275.481 30.4177 275.481 31.677C275.481 35.2701 272.963 36.3621 271.589 36.8024L275.261 42.8877C276.767 45.3536 277.208 45.5209 279.427 45.653V46.2254C278.907 46.2254 278.414 46.2518 277.895 46.2518C275.481 46.2518 274.363 45.9524 272.91 43.5658L269.704 38.3348C269.07 37.322 268.718 37.2692 266.604 37.2075V42.3858C266.604 44.9925 267.071 45.2919 268.163 45.2919H268.955V46.1109C267.749 46.0845 266.595 46.0317 265.397 46.0317C264.199 46.0317 262.852 46.0845 261.892 46.1109V45.2919Z" fill="white"/>
<path d="M291.836 31.5978H290.903C290.876 30.7171 290.656 27.3002 286.517 27.3002C284.245 27.3002 282.791 28.7532 282.791 30.5322C282.791 32.1173 283.61 33.2446 285.891 34.2837L288.41 35.4374C290.383 36.3445 292.488 37.824 292.488 40.5628C292.488 43.9885 290.242 46.4808 285.663 46.4808C285.222 46.4808 282.844 46.4544 280.757 45.7939L280.651 41.3025H281.47C281.69 43.8212 283.795 45.5473 286.129 45.5473C288.463 45.5473 290.515 44.1206 290.515 41.8221C290.515 39.5236 288.622 38.4756 287.089 37.7359L284.13 36.3357C282.052 35.3493 280.598 33.8698 280.598 31.6242C280.598 28.8061 283.012 26.2522 286.711 26.2522C288.437 26.2522 290.137 26.6661 291.836 26.9919V31.5978Z" fill="white"/>
<path fill-rule="evenodd" clip-rule="evenodd" d="M22.1521 60.4567H35.2483C35.2483 60.4567 11.1872 36.6087 8.57144 34.0636C5.95572 31.5273 3.12862 31.8796 1.30554 33.6673C-0.517547 35.455 -0.438282 38.2731 1.58736 40.3338C3.61301 42.3946 22.1521 60.4567 22.1521 60.4567Z" fill="#3D4C22"/>
<path fill-rule="evenodd" clip-rule="evenodd" d="M35.5745 60.3774H48.7588C48.7588 60.3774 67.4212 42.0774 69.2442 40.14C71.0673 38.1938 71.5869 35.4549 69.482 33.4735C67.3771 31.492 64.4355 31.809 62.8943 33.3502C61.3442 34.9001 35.5833 60.3774 35.5833 60.3774H35.5745Z" fill="#3D4C22"/>
<path fill-rule="evenodd" clip-rule="evenodd" d="M37.0801 62.0859H47.1643L42.1266 67L37.0801 62.0859Z" fill="#3D4C22"/>
</svg>
