<svg width="22" height="22" viewBox="0 0 22 22" fill="none" xmlns="http://www.w3.org/2000/svg">
<path d="M9.94574 3.1084H2.98794C2.46071 3.1084 1.95507 3.31784 1.58225 3.69065C1.20944 4.06346 1 4.5691 1 5.09634V19.0119C1 19.5392 1.20944 20.0448 1.58225 20.4176C1.95507 20.7904 2.46071 20.9999 2.98794 20.9999H16.9035C17.4308 20.9999 17.9364 20.7904 18.3092 20.4176C18.682 20.0448 18.8915 19.5392 18.8915 19.0119V12.0541" stroke="#5E9732" stroke-width="2" stroke-linecap="round" stroke-linejoin="round"/>
<path d="M17.3996 1.61757C17.795 1.22215 18.3313 1 18.8905 1C19.4498 1 19.9861 1.22215 20.3815 1.61757C20.7769 2.013 20.9991 2.54931 20.9991 3.10853C20.9991 3.66775 20.7769 4.20406 20.3815 4.59949L10.9388 14.0422L6.96289 15.0362L7.95686 11.0603L17.3996 1.61757Z" stroke="#5E9732" stroke-width="2" stroke-linecap="round" stroke-linejoin="round"/>
</svg>
