<svg width="20" height="20" viewBox="0 0 20 20" fill="none" xmlns="http://www.w3.org/2000/svg">
<path fill-rule="evenodd" clip-rule="evenodd" d="M9.99971 2.50154C6.77897 2.50154 4.16805 5.11247 4.16805 8.33321C4.16805 9.90943 4.87878 11.3974 6.07793 12.9544C7.09047 14.2692 8.38648 15.5547 9.77776 16.9347C9.85148 17.0079 9.92548 17.0813 9.99971 17.155C10.0739 17.0813 10.1479 17.0079 10.2217 16.9347C11.613 15.5547 12.909 14.2692 13.9215 12.9544C15.1207 11.3974 15.8314 9.90943 15.8314 8.33321C15.8314 5.11247 13.2205 2.50154 9.99971 2.50154ZM2.49805 8.33321C2.49805 4.19015 5.85666 0.831543 9.99971 0.831543C14.1428 0.831543 17.5014 4.19015 17.5014 8.33321C17.5014 10.4389 16.5454 12.2843 15.2446 13.9734C14.1576 15.3849 12.7663 16.7641 11.3765 18.1418C11.1137 18.4024 10.8508 18.6629 10.5901 18.9236C10.4336 19.0802 10.2212 19.1682 9.99971 19.1682C9.77826 19.1682 9.56587 19.0802 9.40928 18.9236C9.14858 18.6629 8.88576 18.4024 8.62288 18.1418C7.23313 16.7641 5.84184 15.3849 4.75483 13.9734C3.45398 12.2843 2.49805 10.4389 2.49805 8.33321ZM9.99971 6.66821C9.08016 6.66821 8.33471 7.41366 8.33471 8.33321C8.33471 9.25276 9.08016 9.99821 9.99971 9.99821C10.9193 9.99821 11.6647 9.25276 11.6647 8.33321C11.6647 7.41366 10.9193 6.66821 9.99971 6.66821ZM6.66471 8.33321C6.66471 6.49134 8.15784 4.99821 9.99971 4.99821C11.8416 4.99821 13.3347 6.49134 13.3347 8.33321C13.3347 10.1751 11.8416 11.6682 9.99971 11.6682C8.15784 11.6682 6.66471 10.1751 6.66471 8.33321Z" fill="#384B00"/>
</svg>
