<svg xmlns="http://www.w3.org/2000/svg" width="94" height="80" viewBox="0 0 94 80" fill="none">
    <path fill-rule="evenodd" clip-rule="evenodd"
    d="M44.3829 70.1762C44.3829 70.1762 28.6315 36.7779 26.5282 32.8857C24.4249 28.9935 19.5172 27.3155 15.8832 30.9979C12.2491 34.6803 5.29657 41.4509 5.29657 41.4509C5.29657 41.4509 8.66184 39.4582 14.2473 44.236C19.8327 49.0138 44.3712 70.1762 44.3712 70.1762H44.3829Z"
    fill="#579542" />
    <path fill-rule="evenodd" clip-rule="evenodd"
    d="M45.1183 61.1913L46.7542 17.5964H29.3787L18.8388 28.1543C18.8388 28.1543 22.0522 26.9424 24.6346 28.4223C27.2169 29.8906 28.0115 31.1492 29.3787 33.6197C30.7458 36.0902 45.13 61.1913 45.13 61.1913H45.1183Z"
    fill="#ABBC3A" />
    <path fill-rule="evenodd" clip-rule="evenodd"
    d="M49.8046 61.1913L47.5378 0L76.0842 27.9445C76.0842 27.9445 72.1346 26.418 69.1316 28.8884C66.3856 31.1492 64.5978 35.4026 62.5997 38.817C60.6016 42.2314 49.793 61.1913 49.793 61.1913H49.8046Z"
    fill="#ABBC3A" />
    <path fill-rule="evenodd" clip-rule="evenodd"
    d="M50.4935 70.1758C50.4935 70.1758 65.9761 37.7681 68.3481 32.9436C70.7202 28.1075 75.6746 27.5831 79.3554 31.1607C83.0479 34.7266 89.5798 41.2408 89.5798 41.2408C89.5798 41.2408 87.3713 40.192 84.7889 41.3456C82.2065 42.4993 79.519 44.8067 76.1537 47.8598C72.7884 50.9013 50.5052 70.1758 50.5052 70.1758H50.4935Z"
    fill="#579542" />
    <path fill-rule="evenodd" clip-rule="evenodd"
    d="M29.3905 80H46.7661C46.7661 80 14.8427 48.4429 11.3722 45.0751C7.9018 41.719 4.15092 42.1851 1.73213 44.5508C-0.68666 46.9164 -0.581495 50.6454 2.10605 53.3723C4.7936 56.0991 29.3905 80 29.3905 80Z"
    fill="#3D4C22" />
    <path fill-rule="evenodd" clip-rule="evenodd"
    d="M47.1983 79.8947H64.6907C64.6907 79.8947 89.4512 55.6793 91.87 53.1155C94.2888 50.5402 94.9782 46.916 92.1855 44.294C89.3928 41.672 85.49 42.0915 83.4451 44.1309C81.3885 46.1818 47.21 79.8947 47.21 79.8947H47.1983Z"
    fill="#3D4C22" />
</svg>