<svg width="22" height="22" viewBox="0 0 22 22" fill="none" xmlns="http://www.w3.org/2000/svg">
<path d="M14 11V17" stroke="#5E9732" stroke-width="2" stroke-linecap="round" stroke-linejoin="round"/>
<path d="M11 14H17" stroke="#5E9732" stroke-width="2" stroke-linecap="round" stroke-linejoin="round"/>
<path d="M19 7H9C7.89543 7 7 7.89543 7 9V19C7 20.1046 7.89543 21 9 21H19C20.1046 21 21 20.1046 21 19V9C21 7.89543 20.1046 7 19 7Z" stroke="#5E9732" stroke-width="2" stroke-linecap="round" stroke-linejoin="round"/>
<path d="M3 15C1.9 15 1 14.1 1 13V3C1 1.9 1.9 1 3 1H13C14.1 1 15 1.9 15 3" stroke="#5E9732" stroke-width="2" stroke-linecap="round" stroke-linejoin="round"/>
</svg>
