<svg xmlns="http://www.w3.org/2000/svg" width="24" height="24" viewBox="0 0 24 24" fill="none">
    <path fill-rule="evenodd" clip-rule="evenodd" d="M12 3C7.02944 3 3 7.02944 3 12C3 16.9706 7.02944 21 12 21C16.9706 21 21 16.9706 21 12C21 7.02944 16.9706 3 12 3ZM1 12C1 5.92487 5.92487 1 12 1C18.0751 1 23 5.92487 23 12C23 18.0751 18.0751 23 12 23C5.92487 23 1 18.0751 1 12ZM16.6757 8.26285C17.0828 8.63604 17.1103 9.26861 16.7372 9.67572L11.2372 15.6757C11.0477 15.8824 10.7803 16 10.5 16C10.2197 16 9.95226 15.8824 9.76285 15.6757L7.26285 12.9485C6.88965 12.5413 6.91716 11.9088 7.32428 11.5356C7.73139 11.1624 8.36396 11.1899 8.73715 11.597L10.5 13.5201L15.2628 8.32428C15.636 7.91716 16.2686 7.88965 16.6757 8.26285Z" fill="#384B00"/>
</svg>