<svg width="23" height="22" viewBox="0 0 23 22" fill="none" xmlns="http://www.w3.org/2000/svg">
<path d="M11.666 21C17.1889 21 21.666 16.5228 21.666 11C21.666 5.47715 17.1889 1 11.666 1C6.14317 1 1.66602 5.47715 1.66602 11C1.66602 16.5228 6.14317 21 11.666 21Z" stroke="#5E9732" stroke-width="2" stroke-linecap="round" stroke-linejoin="round"/>
<path d="M11.6641 17C14.9778 17 17.6641 14.3137 17.6641 11C17.6641 7.68629 14.9778 5 11.6641 5C8.35035 5 5.66406 7.68629 5.66406 11C5.66406 14.3137 8.35035 17 11.6641 17Z" stroke="#5E9732" stroke-width="2" stroke-linecap="round" stroke-linejoin="round"/>
<path d="M11.668 13C12.7725 13 13.668 12.1046 13.668 11C13.668 9.89543 12.7725 9 11.668 9C10.5634 9 9.66797 9.89543 9.66797 11C9.66797 12.1046 10.5634 13 11.668 13Z" stroke="#5E9732" stroke-width="2" stroke-linecap="round" stroke-linejoin="round"/>
</svg>
